<?xml version="1.0" standalone="yes"?>
<svg xmlns="http://www.w3.org/2000/svg" width="225" height="225">
<path style="fill:#fefefe; stroke:none;" d="M0 0L0 225L225 225L225 0L0 0z"/>
<path style="fill:#fbbd07; stroke:none;" d="M106 9L106 10L119 10L106 9M96 10L96 11L99 11L96 10z"/>
<path style="fill:#eb4335; stroke:none;" d="M55 93C66.8484 51.8712 118.321 40.6535 150 65L151 65L180 36C174.012 27.8697 163.954 23.0075 155 18.7809C121.707 3.06538 79.1748 7.931 50 30.2361C41.0081 37.1107 32.9029 45.5159 26.696 55C24.8506 57.8197 20.9886 62.3396 21.2523 65.9105C21.5153 69.4723 26.4756 72.1886 29 74.1157C37.3184 80.4658 45.6213 88.3293 55 93z"/>
<path style="fill:#fbbd07; stroke:none;" d="M126.667 10.3333L127.333 10.6667L126.667 10.3333M91.6667 11.3333L92.3333 11.6667L91.6667 11.3333M132.667 11.3333L133.333 11.6667L132.667 11.3333M87 12L88 13L87 12M137 12L138 13L137 12M83 13L84 14L83 13M141 13L142 14L141 13M80 14L81 15L80 14M144 14L145 15L144 14M77 15L78 16L77 15M147 15L148 16L147 15M74 16L75 17L74 16M149 16L150 17L149 16M72 17L73 18L72 17M152 17L153 18L152 17M154 18L155 19L154 18M67 19L68 20L67 19M156 19L157 20L156 19M158 20L159 21L158 20M160 21L161 22L160 21M162 22L163 23L162 22M60 23L61 24L60 23M58 24L59 25L58 24M167 25L168 26L167 25M55 26L56 27L55 26M170 27L171 28L170 27M52 28L53 29L52 28M173 29L174 30L173 29M174 30L175 31L174 30M48 31L49 32L48 31M47 32L48 33L47 32M178 33L179 34L178 33M179 34L180 35L179 34M42 36L43 37L42 36M41 37L42 38L41 37M40 38L41 39L40 38M39 39L40 40L39 39M38 40L39 41L38 40M37 41L38 42L37 41M36 42L37 43L36 42M32 47L33 48L32 47M31 48L32 49L31 48M108 51L108 52L117 52L108 51M28 52L29 53L28 52M101 52L102 53L101 52M122.667 52.3333L123.333 52.6667L122.667 52.3333M96.6667 53.3333L97.3333 53.6667L96.6667 53.3333M127 53L128 54L127 53M93 54L94 55L93 54M131 54L132 55L131 54M26 55L27 56L26 55M90 55L91 56L90 55M88 56L89 57L88 56M136 56L137 57L136 56M138 57L139 58L138 57M24 58L25 59L24 58M140 58L141 59L140 58M82 59L83 60L82 59M142 59L143 60L142 59M23 60L24 61L23 60M80 60L81 61L80 60M145 61L146 62L145 61M77 62L78 63L77 62M148 63L149 64L148 63M73 65L74 66L73 65M72 66L73 67L72 66M20 67C5.26754 92.8875 5.26754 132.112 20 158L55 132L52.0394 106L53.3573 93.3002L44 84.7901L20 67M66 72L67 73L66 72M65 73L66 74L65 73M62 77L63 78L62 77M60 80L61 81L60 80M59 82L60 83L59 82M56 88L57 89L56 88M55 90L56 91L55 90z"/>
<path style="fill:#4486f4; stroke:none;" d="M113 94L113 134L168 134C163.225 146.454 157.877 155.712 147 164L179 190L180 190C206.382 163.601 213.553 129.994 209 94L113 94z"/>
<path style="fill:#35a953; stroke:none;" d="M55 132C45.543 136.214 37.2353 144.629 29 150.87C26.3733 152.861 21.5566 155.342 21.2415 159.039C20.9068 162.968 25.1057 167.97 27.2052 171C34.397 181.379 43.6207 190.603 54 197.795C77.72 214.23 108.076 219.04 136 212.985C148.277 210.323 159.697 205.092 170 197.975C172.729 196.089 179.598 192.472 177.248 188.296C173.335 181.342 161.289 175.284 155 170.425C152.446 168.452 149.44 165.632 146 165.669C137.251 165.764 128.512 172.752 119 172.985C90.7463 173.679 64.5916 160.169 55 132z"/>
</svg>
